<svg version="1.1" id="Layer_1" xmlns="http://www.w3.org/2000/svg" xmlns:xlink="http://www.w3.org/1999/xlink" x="0px" y="0px"
	 viewBox="0 0 50 50" style="enable-background:new 0 0 50 50;" xml:space="preserve" fill="#ffffff">
<g>
	<g>
		<g>
			<path  d="M15.4,32.2c-1.4,0-2.6-1.2-2.6-2.6c0-1.4,1.2-2.6,2.6-2.6s2.6,1.2,2.6,2.6C18,31,16.9,32.2,15.4,32.2z M15.4,29
				c-0.3,0-0.6,0.3-0.6,0.6s0.3,0.6,0.6,0.6c0.3,0,0.6-0.3,0.6-0.6S15.8,29,15.4,29z"/>
		</g>
		<g>
			<path d="M21.8,26.1c-1.4,0-2.6-1.2-2.6-2.6c0-1.4,1.2-2.6,2.6-2.6c1.4,0,2.6,1.2,2.6,2.6C24.4,24.9,23.3,26.1,21.8,26.1z
				 M21.8,22.9c-0.3,0-0.6,0.3-0.6,0.6s0.3,0.6,0.6,0.6c0.3,0,0.6-0.3,0.6-0.6S22.2,22.9,21.8,22.9z"/>
		</g>
		<g>
			<path d="M28.2,28.7c-1.4,0-2.6-1.2-2.6-2.6s1.2-2.6,2.6-2.6c1.4,0,2.6,1.2,2.6,2.6S29.6,28.7,28.2,28.7z M28.2,25.5
				c-0.3,0-0.6,0.3-0.6,0.6s0.3,0.6,0.6,0.6c0.3,0,0.6-0.3,0.6-0.6S28.5,25.5,28.2,25.5z"/>
		</g>
		<g>
			<path d="M34.6,23c-1.4,0-2.6-1.2-2.6-2.6c0-1.4,1.2-2.6,2.6-2.6s2.6,1.2,2.6,2.6C37.2,21.9,36,23,34.6,23z M34.6,19.8
				c-0.3,0-0.6,0.3-0.6,0.6s0.3,0.6,0.6,0.6s0.6-0.3,0.6-0.6S34.9,19.8,34.6,19.8z"/>
		</g>
		<g>
			<path d="M16.5,29.4c-0.3,0-0.6-0.1-0.8-0.3c-0.4-0.4-0.3-1,0.1-1.4l4.3-3.7c0.4-0.4,1.1-0.3,1.4,0.1c0.4,0.4,0.3,1-0.1,1.4
				l-4.3,3.7C16.9,29.3,16.7,29.4,16.5,29.4z"/>
		</g>
		<g>
			<path d="M26.8,26.4c-0.1,0-0.2,0-0.3-0.1l-3.5-1.2c-0.5-0.2-0.8-0.8-0.6-1.3s0.8-0.8,1.3-0.6l3.5,1.2c0.5,0.2,0.8,0.8,0.6,1.3
				C27.6,26.1,27.2,26.4,26.8,26.4z"/>
		</g>
		<g>
			<path d="M29.3,25.9c-0.3,0-0.6-0.1-0.8-0.4c-0.3-0.4-0.3-1.1,0.2-1.4l4.2-3.4c0.4-0.3,1.1-0.3,1.4,0.2s0.3,1.1-0.2,1.4l-4.2,3.4
				C29.7,25.9,29.5,25.9,29.3,25.9z"/>
		</g>
	</g>
</g>
</svg>
