<?xml version="1.0" encoding="utf-8"?>
<!-- Generator: Adobe Illustrator 24.3.0, SVG Export Plug-In . SVG Version: 6.00 Build 0)  -->
<svg version="1.1" id="Layer_1" xmlns="http://www.w3.org/2000/svg" xmlns:xlink="http://www.w3.org/1999/xlink" x="0px" y="0px"
	 viewBox="0 0 50 50" style="enable-background:new 0 0 50 50;" xml:space="preserve">
<style type="text/css">
	.st0{fill:#FFFFFF;}
</style>
<g>
	<g>
		<g>
			<g>
				<g>
					<path class="st0" d="M16.7,23.2c-1.4,0-2.6-1.2-2.6-2.6s1.2-2.6,2.6-2.6s2.6,1.2,2.6,2.6C19.3,22,18.2,23.2,16.7,23.2z
						 M16.7,20c-0.3,0-0.6,0.3-0.6,0.6c0,0.3,0.3,0.6,0.6,0.6s0.6-0.3,0.6-0.6C17.3,20.3,17.1,20,16.7,20z"/>
				</g>
			</g>
		</g>
		<g>
			<g>
				<g>
					<path class="st0" d="M33.3,32c-1.4,0-2.6-1.2-2.6-2.6s1.2-2.6,2.6-2.6c1.4,0,2.6,1.2,2.6,2.6S34.7,32,33.3,32z M33.3,28.8
						c-0.3,0-0.6,0.3-0.6,0.6c0,0.3,0.3,0.6,0.6,0.6s0.6-0.3,0.6-0.6C33.9,29.1,33.6,28.8,33.3,28.8z"/>
				</g>
			</g>
		</g>
		<g>
			<path class="st0" d="M32.4,28.9c-0.4,0-0.8-0.3-0.9-0.7c-2.7-8-12.9-6.6-13-6.6c-0.5,0.1-1.1-0.3-1.1-0.8
				c-0.1-0.5,0.3-1.1,0.8-1.1c0.1,0,11.9-1.7,15.2,7.9c0.2,0.5-0.1,1.1-0.6,1.3C32.7,28.9,32.6,28.9,32.4,28.9z"/>
		</g>
	</g>
</g>
</svg>
