<?xml version="1.0" encoding="iso-8859-1"?>
<!-- Generator: Adobe Illustrator 24.3.0, SVG Export Plug-In . SVG Version: 6.00 Build 0)  -->
<svg version="1.1" id="Layer_1" xmlns="http://www.w3.org/2000/svg" xmlns:xlink="http://www.w3.org/1999/xlink" x="0px" y="0px"
	 viewBox="0 0 1024 1024" style="enable-background:new 0 0 1024 1024;" xml:space="preserve">
<g id="BG_x5F_noExport" style="display:none;">
	<rect x="-1" style="display:inline;fill:#999999;" width="1024" height="1024"/>
</g>
<g id="icon_x5F_recorded_x5F_path">
	<path style="fill:#FFFFFF;" d="M560.549,796.094H310.356c-13.597,0-21.756-8.158-21.756-21.756s8.158-21.756,21.756-21.756h250.194
		c35.353,0,73.426-13.597,97.902-40.792c21.756-21.756,35.353-51.67,35.353-84.304c-2.72-92.463-38.073-193.084-108.78-312.742
		l-21.756-29.914c-8.158-10.878-21.756-19.036-35.353-19.036s-27.195,8.158-35.353,19.036l-16.317,24.475
		C430.014,377.292,432,373,410,411l-17.132,31.339c-5.439,10.878-16.317,19.036-29.914,13.597
		c-10.878-5.439-19.036-16.317-13.597-29.914L365,401c23-39,24.221-40.025,73.172-113.452l16.317-24.475
		C470.806,241.317,498.001,225,527.916,225c29.914,0,57.109,13.597,76.146,35.353l21.756,29.914
		c76.146,125.097,111.499,236.596,116.938,337.217c2.719,43.512-16.317,84.304-46.231,116.938
		C658.451,774.338,609.5,796.094,560.549,796.094z"/>
	<path id="Shape_2_copy_4-2_2_" style="fill-rule:evenodd;clip-rule:evenodd;fill:#FFFFFF;" d="M335.288,414.423
		c53.81,0,97.432,43.622,97.432,97.432s-43.622,97.432-97.432,97.432s-97.432-43.622-97.432-97.432l0,0
		C237.856,458.045,281.478,414.423,335.288,414.423z M335.752,455.252c31.518,0,57.068,25.55,57.068,57.068
		s-25.55,57.068-57.068,57.068s-57.068-25.55-57.068-57.068S304.235,455.252,335.752,455.252L335.752,455.252z"/>
	
		<polyline style="fill-rule:evenodd;clip-rule:evenodd;fill:none;stroke:#FFFFFF;stroke-width:45;stroke-linecap:round;stroke-linejoin:round;stroke-miterlimit:3.9064;" points="
		369.771,836.319 300.77,770.354 367.713,700.331 	"/>
</g>
</svg>
