<svg version="1.1" id="Layer_1" xmlns="http://www.w3.org/2000/svg" xmlns:xlink="http://www.w3.org/1999/xlink"
    x="0px" y="0px" viewBox="0 0 1024 1024" style="enable-background:new 0 0 1024 1024;" xml:space="preserve">
    <g id="BG_x5F_noExport" style="display:none;">
    <rect x="3" style="display:inline;fill:#999999;" width="1024" height="1024" />
    </g>
    <g id="icon_x5F_program_1_">
    <g>
        <g id="svg_111_1_">
        <g id="svg_79_1_"
            transform="matrix(17.625153378260322,0,0,17.625153378260322,26.41242060599143,-10.919955331788515) ">
            <g id="svg_90_1_">
            <g id="svg_91_1_">
                <g id="svg_92_1_">
                <path id="svg_93_1_" style="fill:#FFFFFF;" d="M38.944,20.655H19.203c-0.79,0-1.316-0.526-1.316-1.316
                        s0.526-1.316,1.316-1.316h19.741c0.79,0,1.316,0.526,1.316,1.316C40.26,19.997,39.602,20.655,38.944,20.655z" />
                </g>
                <g id="svg_94_1_">
                <path id="svg_95_1_" style="fill:#FFFFFF;"
                    d="M14.07,20.918h-1.316c-0.79,0-1.316-0.526-1.316-1.316
                        c0-0.79,0.526-1.316,1.316-1.316h1.316c0.79,0,1.316,0.526,1.316,1.316C15.386,20.26,14.86,20.918,14.07,20.918z" />
                </g>
            </g>
            <g id="svg_96_1_">
                <g id="svg_97_1_">
                <path id="svg_98_1_" style="fill:#FFFFFF;"
                    d="M38.944,27.499H26.573c-0.79,0-1.316-0.526-1.316-1.316
                        c0-0.79,0.526-1.316,1.316-1.316h12.371c0.79,0,1.316,0.526,1.316,1.316C40.26,26.841,39.602,27.499,38.944,27.499z" />
                </g>
                <g id="svg_99_1_">
                <path id="svg_100_1_" style="fill:#FFFFFF;"
                    d="M21.44,27.762h-1.316c-0.79,0-1.316-0.526-1.316-1.316
                        c0-0.79,0.526-1.316,1.316-1.316h1.316c0.79,0,1.316,0.526,1.316,1.316C22.756,27.104,22.23,27.762,21.44,27.762z" />
                </g>
            </g>
            <g id="svg_101_1_">
                <g id="svg_102_1_">
                <path id="svg_103_1_" style="fill:#FFFFFF;" d="M38.944,41.055H26.573c-0.79,0-1.316-0.526-1.316-1.316
                        s0.526-1.316,1.316-1.316h12.371c0.79,0,1.316,0.526,1.316,1.316S39.602,41.055,38.944,41.055z" />
                </g>
                <g id="svg_104_1_">
                <path id="svg_105_1_" style="fill:#FFFFFF;"
                    d="M21.44,41.318h-1.316c-0.79,0-1.316-0.526-1.316-1.316
                        c0-0.79,0.526-1.316,1.316-1.316h1.316c0.79,0,1.316,0.526,1.316,1.316C22.756,40.791,22.23,41.318,21.44,41.318z" />
                </g>
            </g>
            <g id="svg_106_1_">
                <g id="svg_107_1_">
                <path id="svg_108_1_" style="fill:#FFFFFF;" d="M38.944,34.211h-5.922c-0.79,0-1.316-0.526-1.316-1.316
                        s0.526-1.316,1.316-1.316h5.922c0.79,0,1.316,0.526,1.316,1.316S39.602,34.211,38.944,34.211z" />
                </g>
                <g id="svg_109_1_">
                <path id="svg_110_1_" style="fill:#FFFFFF;" d="M27.889,34.474h-1.316c-0.79,0-1.316-0.526-1.316-1.316
                        s0.526-1.316,1.316-1.316h1.316c0.79,0,1.316,0.526,1.316,1.316S28.547,34.474,27.889,34.474z" />
                </g>
            </g>
            </g>
        </g>
        </g>
    </g>
    </g>
</svg>
